<svg width="960" height="600" version="1.1" xmlns="http://www.w3.org/2000/svg"><g></g><g transform="translate(480,300)scale(1.0690423250198364,1.0690423250198364)"><text text-anchor="middle" transform="translate(-146,0)rotate(20)scale(1,1)" style="font-size: 94px; font-family: Impact; fill: rgb(57, 59, 121);">statistics</text><text text-anchor="middle" transform="translate(-149,-136)rotate(20)scale(1,1)" style="font-size: 85px; font-family: Impact; fill: rgb(82, 84, 163);"></text><text text-anchor="middle" transform="translate(57,-64)rotate(0)" style="font-size: 100px; font-family: Impact; fill: rgb(107, 110, 207);">research</text><text text-anchor="middle" transform="translate(113,-146)rotate(10)scale(0.9999999999999999,0.9999999999999999)" style="font-size: 82px; font-family: Impact; fill: rgb(156, 158, 222);">time</text><text text-anchor="middle" transform="translate(120,0)rotate(10)scale(0.9999999999999999,0.9999999999999999)" style="font-size: 76px; font-family: Impact; fill: rgb(99, 121, 57);">work</text><text text-anchor="middle" transform="translate(-229,-141)rotate(-20)" style="font-size: 63px; font-family: Impact; fill: rgb(140, 162, 82);">teaching</text><text text-anchor="middle" transform="translate(-47,-210)rotate(10)scale(0.9999999999999999,0.9999999999999999)" style="font-size: 48px; font-family: Impact; fill: rgb(181, 207, 107);">students</text><text text-anchor="middle" transform="translate(304,-33)rotate(-10)scale(0.9999999999999999,0.9999999999999999)" style="font-size: 49px; font-family: Impact; fill: rgb(206, 219, 156);">graduate</text><text text-anchor="middle" transform="translate(9,-147)rotate(0)" style="font-size: 45px; font-family: Impact; fill: rgb(140, 109, 49);">job</text><text text-anchor="middle" transform="translate(-264,-5)rotate(20)" style="font-size: 46px; font-family: Impact; fill: rgb(189, 158, 57);">career</text><text text-anchor="middle" transform="translate(118,42)rotate(10)scale(0.9999999999999999,0.9999999999999999)" style="font-size: 46px; font-family: Impact; fill: rgb(231, 186, 82);">article</text><text text-anchor="middle" transform="translate(-166,101)rotate(20)" style="font-size: 39px; font-family: Impact; fill: rgb(231, 203, 148);">new</text><text text-anchor="middle" transform="translate(253,-167)rotate(-20)" style="font-size: 42px; font-family: Impact; fill: rgb(132, 60, 57);">make</text><text text-anchor="middle" transform="translate(237,16)rotate(-10)scale(0.9999999999999999,0.9999999999999999)" style="font-size: 40px; font-family: Impact; fill: rgb(173, 73, 74);">ask</text><text text-anchor="middle" transform="translate(-229,143)rotate(-20)" style="font-size: 40px; font-family: Impact; fill: rgb(214, 97, 107);">people</text><text text-anchor="middle" transform="translate(-168,-101)rotate(-20)scale(1,1)" style="font-size: 38px; font-family: Impact; fill: rgb(231, 150, 156);">first</text><text text-anchor="middle" transform="translate(-61,-137)rotate(-10)scale(0.9999999999999999,0.9999999999999999)" style="font-size: 36px; font-family: Impact; fill: rgb(165, 81, 148);">talk</text><text text-anchor="middle" transform="translate(-250,-204)rotate(10)scale(0.9999999999999999,0.9999999999999999)" style="font-size: 35px; font-family: Impact; fill: rgb(206, 109, 189);">help</text><text text-anchor="middle" transform="translate(-335,46)rotate(20)" style="font-size: 35px; font-family: Impact; fill: rgb(222, 158, 214);">write</text><text text-anchor="middle" transform="translate(-1,-32)rotate(-20)" style="font-size: 32px; font-family: Impact; fill: rgb(82, 84, 163);">list</text><text text-anchor="middle" transform="translate(-266,89)rotate(-20)scale(1,1)" style="font-size: 54px; font-family: Impact; fill: rgb(140, 162, 82);">professional</text><text text-anchor="middle" transform="translate(-337,6)rotate(20)" style="font-size: 38px; font-family: Impact; fill: rgb(123, 65, 115);">academic</text><text text-anchor="middle" transform="translate(233,75)rotate(-10)scale(0.9999999999999999,0.9999999999999999)" style="font-size: 38px; font-family: Impact; fill: rgb(206, 219, 156);">advisor</text><text text-anchor="middle" transform="translate(-227,-240)rotate(10)scale(0.9999999999999999,0.9999999999999999)" style="font-size: 35px; font-family: Impact; fill: rgb(140, 109, 49);">government</text><text text-anchor="middle" transform="translate(286,-87)rotate(-20)" style="font-size: 35px; font-family: Impact; fill: rgb(57, 59, 121);">well</text><text text-anchor="middle" transform="translate(-60,70)rotate(20)" style="font-size: 33px; font-family: Impact; fill: rgb(189, 158, 57);">consulting</text><text text-anchor="middle" transform="translate(-45,110)rotate(20)scale(1,1)" style="font-size: 33px; font-family: Impact; fill: rgb(231, 186, 82);">experience</text><text text-anchor="middle" transform="translate(101,-221)rotate(20)scale(1,1)" style="font-size: 32px; font-family: Impact; fill: rgb(231, 203, 148);">committee</text><text text-anchor="middle" transform="translate(59,115)rotate(20)scale(1,1)" style="font-size: 30px; font-family: Impact; fill: rgb(214, 97, 107);">funding</text><text text-anchor="middle" transform="translate(332,0)rotate(-20)scale(1,1)" style="font-size: 30px; font-family: Impact; fill: rgb(156, 158, 222);">example</text></g></svg>